<svg xmlns="http://www.w3.org/2000/svg" viewBox="0 0 96 96" role="img" aria-labelledby="title desc">
  <title id="title">მშვიდობის ხიდი</title>
  <desc id="desc">მინისა და სინათლის ხიდის აბსტრაქტული ნიშანი</desc>
  <defs>
    <linearGradient id="g" x1="18" y1="20" x2="78" y2="78" gradientUnits="userSpaceOnUse">
      <stop stop-color="#B8FBFF"/><stop offset=".55" stop-color="#69DFE8"/><stop offset="1" stop-color="#2BA8B7"/>
    </linearGradient>
  </defs>
  <rect x="1" y="1" width="94" height="94" rx="29" fill="#07151D" stroke="#2A5665" stroke-width="2"/>
  <path d="M15 58C27 33 39 29 49 43C58 55 68 56 81 35" fill="none" stroke="url(#g)" stroke-width="4.4" stroke-linecap="round"/>
  <path d="M14 66C30 47 43 45 54 56C65 67 72 61 82 48" fill="none" stroke="#8FF2F7" stroke-opacity=".42" stroke-width="2.2" stroke-linecap="round"/>
  <g stroke="#7BE7EE" stroke-opacity=".42" stroke-width="1.6">
    <path d="M27 40l4 24"/><path d="M39 34l4 28"/><path d="M51 45l-1 19"/><path d="M63 54l-2 11"/><path d="M73 49l-2 12"/>
  </g>
  <g fill="#DDFEFF">
    <circle cx="22" cy="54" r="1.8"/><circle cx="34" cy="39" r="1.8"/><circle cx="47" cy="41" r="1.8"/><circle cx="61" cy="54" r="1.8"/><circle cx="76" cy="43" r="1.8"/>
  </g>
</svg>
